<?xml version="1.0" encoding="utf-8"?>
<!-- Generator: Adobe Illustrator 16.2.0, SVG Export Plug-In . SVG Version: 6.00 Build 0)  -->
<!DOCTYPE svg PUBLIC "-//W3C//DTD SVG 1.1//EN" "http://www.w3.org/Graphics/SVG/1.1/DTD/svg11.dtd">
<svg version="1.1" id="Слой_1" xmlns="http://www.w3.org/2000/svg" xmlns:xlink="http://www.w3.org/1999/xlink" x="0px" y="0px"
	 width="177.029px" height="35.105px" viewBox="0 0 177.029 35.105" enable-background="new 0 0 177.029 35.105"
	 xml:space="preserve">
<g>
	<g>
		<path fill="#37B8EE" d="M65.014,17.61c1.497,1.448,3.376,2.189,5.674,2.189c2.889,0,5.047-1.079,6.542-3.267l2.195,1.325
			c-1.882,2.745-4.804,4.132-8.775,4.132c-3.235,0-5.811-0.926-7.759-2.776c-1.949-1.85-2.926-4.377-2.926-7.583
			c0-3.24,0.977-5.798,2.926-7.707c1.948-1.945,4.523-2.899,7.727-2.899c3.899,0,6.788,1.356,8.703,4.039l-2.192,1.388
			c-1.499-2.128-3.657-3.206-6.511-3.206c-2.299,0-4.177,0.738-5.64,2.188c-1.426,1.45-2.155,3.485-2.155,6.073
			C62.822,14.128,63.552,16.16,65.014,17.61z"/>
		<path fill="#37B8EE" d="M83.565,8.918c1.845-1.358,3.899-2.035,6.196-2.035c4.003,0,6.127,1.94,6.127,5.796v8.846h-2.402
			l-0.035-1.756c-1.426,1.479-3.375,2.221-5.777,2.221c-3.236,0-5.322-1.728-5.322-4.225c0-2.097,1.144-3.392,2.92-4.07
			c1.254-0.522,2.297-0.771,3.865-0.893c1.635-0.155,2.539-0.185,4.071-0.185c0.104-2.221-1.113-3.732-3.516-3.732
			c-1.739,0-3.34,0.557-4.838,1.636L83.565,8.918z M93.208,14.404c-2.192,0-3.898,0.156-5.116,0.462
			c-2.472,0.587-2.925,1.419-2.925,2.805c0,1.481,1.15,2.344,3.238,2.344c1.809,0,3.412-0.708,4.803-2.127V14.404z"/>
		<path fill="#37B8EE" d="M103.721,21.525h-2.679V7.343h2.506v3.393c1.044-2.56,2.958-3.823,5.776-3.823
			c0.837,0,1.499,0.123,1.985,0.369l-0.452,2.066c-0.452-0.154-0.976-0.217-1.533-0.217c-1.635,0-2.993,0.555-4.036,1.666
			c-1.044,1.111-1.567,2.438-1.567,4.008V21.525z"/>
		<path fill="#FFFFFF" d="M114.685,21.525V1.487h15.457v3.545h-10.719V9.81h7.76v3.392h-7.76v8.323H114.685z"/>
		<path fill="#FFFFFF" d="M133.588,0.718c1.01-0.958,2.751-0.958,3.76,0c1.011,0.893,1.011,2.433,0,3.328
			c-1.009,0.865-2.75,0.865-3.76,0C132.58,3.151,132.58,1.611,133.588,0.718z M133.275,21.525V7.343h4.387v14.182H133.275z"/>
		<path fill="#FFFFFF" d="M146.224,21.525h-4.389V7.343h4.039v2.899c1.15-2.25,2.926-3.359,5.36-3.359
			c3.795,0,5.674,2.064,5.674,6.166v8.477h-4.384v-8.014c0-2.715-0.696-3.485-2.471-3.485c-1.187,0-2.125,0.431-2.82,1.325
			c-0.661,0.895-1.01,1.912-1.01,3.084V21.525z"/>
		<path fill="#FFFFFF" d="M172.992,21.525v-2.28c-1.253,1.818-3.028,2.745-5.362,2.745c-4.456,0-7.239-2.806-7.239-7.523
			s2.889-7.522,7.239-7.522c2.334,0,4.005,0.802,5.015,2.435V1.487h4.385v20.038H172.992z M164.915,14.466
			c0,2.561,1.254,4.376,3.9,4.376c2.471,0,3.968-1.633,3.968-4.376c0-2.744-1.497-4.377-3.968-4.377
			C166.169,10.089,164.915,11.907,164.915,14.466z"/>
	</g>
	<g>
		<path fill="#FFFFFF" d="M61.948,28.669v4.449h-0.604v-4.97h4.028v4.97h-0.606v-4.449H61.948z"/>
		<path fill="#FFFFFF" d="M67.455,32.544c-0.455-0.483-0.68-1.12-0.68-1.909s0.225-1.427,0.68-1.913
			c0.453-0.485,1.047-0.733,1.772-0.733c0.721,0,1.314,0.248,1.771,0.733c0.451,0.486,0.678,1.124,0.678,1.913
			s-0.227,1.426-0.678,1.909c-0.444,0.486-1.037,0.735-1.771,0.735C68.502,33.279,67.908,33.03,67.455,32.544z M67.876,32.114
			c0.333,0.4,0.789,0.594,1.352,0.594c0.571,0,1.015-0.194,1.35-0.594c0.333-0.402,0.495-0.887,0.495-1.479
			c0-0.595-0.162-1.092-0.495-1.491c-0.335-0.399-0.778-0.594-1.35-0.594c-0.563,0-1.019,0.195-1.352,0.594
			c-0.335,0.398-0.497,0.896-0.497,1.491C67.379,31.227,67.541,31.711,67.876,32.114z"/>
		<path fill="#FFFFFF" d="M72.324,32.611h0.228c0.39,0,0.776-0.467,0.939-1.188c0.086-0.391,0.139-1.482,0.149-3.276h3.316v4.451
			h0.68v1.985h-0.569v-1.467h-4.171v1.479h-0.572V32.611z M76.342,28.669h-2.139c-0.01,0.163-0.01,0.334-0.01,0.518
			c0.01,0.346,0.01,1.005-0.032,1.49c-0.076,0.982-0.304,1.621-0.67,1.922h2.851V28.669z"/>
		<path fill="#FFFFFF" d="M78.501,30.247c0-2.562,0.84-3.944,2.529-4.148l1.889-0.185v0.628l-1.644,0.106
			c-0.679,0.099-1.175,0.326-1.49,0.68c-0.312,0.357-0.55,0.917-0.699,1.696h0.051c0.174-0.333,0.433-0.594,0.779-0.766
			c0.345-0.183,0.681-0.27,1.015-0.27c0.724,0,1.318,0.248,1.762,0.733c0.443,0.486,0.668,1.124,0.668,1.913
			s-0.225,1.426-0.668,1.909c-0.443,0.486-1.038,0.735-1.762,0.735C79.341,33.279,78.501,32.157,78.501,30.247z M79.59,32.114
			c0.335,0.4,0.78,0.594,1.341,0.594c0.563,0,1.006-0.194,1.329-0.584c0.334-0.398,0.496-0.896,0.496-1.489
			c0-0.595-0.162-1.092-0.487-1.491c-0.323-0.399-0.765-0.594-1.338-0.594c-0.561,0-1.006,0.195-1.341,0.594
			c-0.323,0.398-0.485,0.896-0.485,1.491C79.104,31.227,79.267,31.711,79.59,32.114z"/>
		<path fill="#FFFFFF" d="M85.12,32.544c-0.456-0.483-0.682-1.12-0.682-1.909s0.226-1.427,0.682-1.913
			c0.453-0.485,1.048-0.733,1.77-0.733c0.725,0,1.318,0.248,1.771,0.733c0.454,0.486,0.682,1.124,0.682,1.913
			s-0.228,1.426-0.682,1.909c-0.44,0.486-1.035,0.735-1.771,0.735C86.168,33.279,85.573,33.03,85.12,32.544z M85.54,32.114
			c0.337,0.4,0.788,0.594,1.35,0.594c0.573,0,1.019-0.194,1.35-0.594c0.335-0.402,0.498-0.887,0.498-1.479
			c0-0.595-0.163-1.092-0.498-1.491c-0.331-0.399-0.776-0.594-1.35-0.594c-0.562,0-1.013,0.195-1.35,0.594
			c-0.335,0.398-0.495,0.896-0.495,1.491C85.045,31.227,85.205,31.711,85.54,32.114z"/>
		<path fill="#FFFFFF" d="M91.295,28.148v1.019c0.38-0.78,1.146-1.178,1.935-1.178c0.702,0,1.274,0.248,1.706,0.733
			c0.432,0.486,0.647,1.124,0.647,1.913s-0.216,1.426-0.647,1.909c-0.432,0.486-1.004,0.735-1.706,0.735
			c-0.853,0-1.565-0.39-1.882-0.981v2.808h-0.603v-6.958H91.295z M93.153,32.708c0.55,0,0.994-0.194,1.327-0.594
			c0.336-0.402,0.498-0.887,0.498-1.479c0-0.595-0.162-1.092-0.498-1.491c-0.333-0.399-0.777-0.594-1.327-0.594
			c-0.541,0-0.983,0.195-1.317,0.594c-0.334,0.389-0.519,0.884-0.529,1.491C91.307,31.844,91.976,32.708,93.153,32.708z"/>
		<path fill="#FFFFFF" d="M99.284,28.691c0.691-0.573,1.256-0.703,1.937-0.703c1.152,0,1.736,0.68,1.736,2.03v3.099h-0.562v-0.583
			c-0.507,0.495-1.111,0.744-1.793,0.744c-1.024,0-1.674-0.593-1.674-1.469c-0.042-0.84,0.574-1.317,1.198-1.531
			c0.208-0.077,0.453-0.13,0.746-0.164c0.292-0.031,0.54-0.052,0.745-0.065c0.206-0.01,0.443-0.022,0.733-0.022
			c0.044-0.875-0.268-1.498-1.123-1.498c-0.572,0-1.122,0.205-1.629,0.614L99.284,28.691z M102.352,30.548
			c-1.197,0-1.976,0.119-2.331,0.377c-0.357,0.25-0.442,0.487-0.442,0.884c0,0.562,0.42,0.941,1.156,0.941
			c0.56,0,1.101-0.258,1.617-0.778V30.548z"/>
		<path fill="#FFFFFF" d="M104.684,33.118v-4.97h2.13c0.896,0,1.477,0.435,1.477,1.201c0,0.551-0.356,1.014-0.842,1.069v0.063
			c0.639,0.035,1.133,0.499,1.133,1.287c0,0.853-0.615,1.349-1.62,1.349H104.684z M105.288,28.669v1.554h1.427
			c0.615,0,0.939-0.323,0.939-0.788c0-0.507-0.27-0.767-0.821-0.767H105.288z M105.288,30.731v1.868h1.687
			c0.636,0,0.959-0.312,0.959-0.94c0-0.551-0.441-0.928-1.176-0.928H105.288z"/>
		<path fill="#FFFFFF" d="M111.434,28.669h-1.771v-0.521h4.156v0.521h-1.782v4.449h-0.603V28.669z"/>
		<path fill="#FFFFFF" d="M115.58,32.544c-0.453-0.483-0.682-1.12-0.682-1.909s0.229-1.427,0.682-1.913
			c0.45-0.485,1.046-0.733,1.77-0.733c0.725,0,1.316,0.248,1.771,0.733c0.453,0.486,0.681,1.124,0.681,1.913
			s-0.228,1.426-0.681,1.909c-0.443,0.486-1.037,0.735-1.771,0.735C116.626,33.279,116.03,33.03,115.58,32.544z M116,32.114
			c0.335,0.4,0.789,0.594,1.35,0.594c0.571,0,1.015-0.194,1.35-0.594c0.335-0.402,0.495-0.887,0.495-1.479
			c0-0.595-0.16-1.092-0.495-1.491c-0.335-0.399-0.778-0.594-1.35-0.594c-0.561,0-1.015,0.195-1.35,0.594
			c-0.333,0.398-0.496,0.896-0.496,1.491C115.504,31.227,115.667,31.711,116,32.114z"/>
		<path fill="#FFFFFF" d="M126.203,33.118l-0.594-3.606l-1.812,3.822h-0.065l-1.795-3.822l-0.615,3.606h-0.549l0.862-5.184h0.066
			l2.07,4.255l2.053-4.255h0.065l0.864,5.184H126.203z"/>
		<path fill="#FFFFFF" d="M128.515,32.544c-0.452-0.483-0.682-1.12-0.682-1.909s0.229-1.427,0.682-1.913
			c0.454-0.485,1.047-0.733,1.769-0.733c0.725,0,1.32,0.248,1.772,0.733c0.455,0.486,0.682,1.124,0.682,1.913
			s-0.227,1.426-0.682,1.909c-0.442,0.486-1.036,0.735-1.772,0.735C129.562,33.279,128.969,33.03,128.515,32.544z M128.937,32.114
			c0.336,0.4,0.786,0.594,1.347,0.594c0.574,0,1.018-0.194,1.354-0.594c0.334-0.402,0.495-0.887,0.495-1.479
			c0-0.595-0.161-1.092-0.495-1.491c-0.336-0.399-0.779-0.594-1.354-0.594c-0.561,0-1.011,0.195-1.347,0.594
			c-0.335,0.398-0.497,0.896-0.497,1.491C128.439,31.227,128.602,31.711,128.937,32.114z"/>
		<path fill="#FFFFFF" d="M133.814,30.247c0-2.562,0.843-3.944,2.529-4.148l1.887-0.185v0.628l-1.64,0.106
			c-0.681,0.099-1.176,0.326-1.489,0.68c-0.313,0.357-0.553,0.917-0.703,1.696h0.054c0.175-0.333,0.433-0.594,0.777-0.766
			c0.346-0.183,0.681-0.27,1.016-0.27c0.726,0,1.318,0.248,1.759,0.733c0.443,0.486,0.672,1.124,0.672,1.913
			s-0.229,1.426-0.672,1.909c-0.44,0.486-1.033,0.735-1.759,0.735C134.657,33.279,133.814,32.157,133.814,30.247z M134.908,32.114
			c0.334,0.4,0.777,0.594,1.337,0.594c0.562,0,1.005-0.194,1.329-0.584c0.333-0.398,0.496-0.896,0.496-1.489
			c0-0.595-0.163-1.092-0.486-1.491c-0.324-0.399-0.767-0.594-1.339-0.594c-0.56,0-1.003,0.195-1.337,0.594
			c-0.326,0.398-0.487,0.896-0.487,1.491C134.421,31.227,134.582,31.711,134.908,32.114z"/>
		<path fill="#FFFFFF" d="M140.683,31.898l3.412-3.964h0.067v5.184h-0.607V29.37l-3.412,3.963h-0.066v-5.186h0.606V31.898z"/>
		<path fill="#FFFFFF" d="M149.126,28.669h-2.116c-0.01,0.637,0.056,2.439-0.292,3.521c-0.259,0.778-0.669,1.155-1.479,1.036v-0.54
			c0.641,0.075,0.875-0.323,1.06-1.156c0.087-0.387,0.142-1.511,0.15-3.381h3.295v4.97h-0.617V28.669z"/>
		<path fill="#FFFFFF" d="M151.805,28.734c0.443-0.498,1.003-0.746,1.664-0.746c1.521,0,2.321,1.015,2.321,2.646v0.129h-4.039
			c0.039,1.154,0.69,1.955,1.857,1.955c0.703,0,1.254-0.249,1.661-0.757l0.401,0.357c-0.485,0.637-1.18,0.96-2.095,0.96
			c-1.545,0-2.43-1.047-2.43-2.644C151.146,29.856,151.361,29.219,151.805,28.734z M151.781,30.247h3.372
			c-0.087-1.069-0.648-1.697-1.685-1.697C152.592,28.55,151.924,29.219,151.781,30.247z"/>
		<path fill="#FFFFFF" d="M157.797,31.898l3.413-3.964h0.065v5.184h-0.604V29.37l-3.414,3.963h-0.064v-5.186h0.604V31.898z
			 M160.594,26.109c0,1.048-0.581,1.478-1.349,1.478c-0.769,0-1.35-0.43-1.35-1.478h0.539c0,0.658,0.27,0.994,0.811,0.994
			c0.55,0,0.833-0.336,0.833-0.994H160.594z"/>
	</g>
	<path fill="#FFFFFF" d="M45.523,10.99l-0.95,1.114c0.524,0.387,1.29,0.395,1.87,0.67c0.129,0.059,0.242,0.13,0.35,0.225
		c0.432,0.368,1.315,1.68,1.439,2.213c0.261,1.124-0.111,3.028-0.167,4.201c-0.014,0.312-0.053,2.197-0.099,4.341
		c-0.063,0.028-0.097,0.041-0.119,0.049c-0.02,0.006-0.027,0.006-0.027,0.006c-0.26,0.073-0.574,0.128-0.933,0.197
		c-0.375,0.085-0.807,0.141-1.271,0.208c-0.228,0.037-0.475,0.048-0.724,0.075c-0.248,0.018-0.507,0.048-0.771,0.048
		c-0.266,0.006-0.532,0.025-0.811,0.021c-0.274-0.006-0.555-0.016-0.838-0.024c-0.281-0.021-0.568-0.044-0.854-0.071
		c-0.288-0.039-0.576-0.074-0.863-0.121c-0.571-0.102-1.146-0.229-1.698-0.402l-0.411-0.127l-0.404-0.146
		c-0.27-0.094-0.528-0.208-0.785-0.317c-0.256-0.113-0.504-0.237-0.742-0.36c-0.243-0.132-0.479-0.252-0.698-0.394
		c-0.453-0.26-0.862-0.553-1.238-0.835c-0.381-0.289-0.714-0.576-1.01-0.853c-0.188-0.18-0.364-0.35-0.516-0.514
		c0.942-1.549,1.485-3.365,1.485-5.311c0-0.707-0.073-1.396-0.206-2.06h-0.004C33.573,8.163,29.452,4.66,24.507,4.66
		c-4.937,0-9.059,3.496-10.016,8.151h0.001c-0.138,0.667-0.21,1.362-0.21,2.074c0,5.649,4.577,10.23,10.227,10.23
		c1.528,0,2.976-0.336,4.279-0.935c0.168,0.11,0.349,0.227,0.539,0.35c0.4,0.253,0.859,0.512,1.368,0.775
		c0.509,0.263,1.07,0.519,1.671,0.756c0.603,0.233,1.247,0.458,1.924,0.632c0.333,0.101,0.681,0.169,1.028,0.251
		c0.351,0.067,0.708,0.131,1.065,0.182c0.359,0.049,0.717,0.102,1.082,0.123c0.183,0.014,0.365,0.03,0.543,0.041l0.545,0.014
		c0.723,0.019,1.443-0.025,2.141-0.086c0.348-0.041,0.69-0.092,1.027-0.142c0.33-0.061,0.659-0.124,0.981-0.186
		c0.32-0.077,0.629-0.159,0.932-0.233c0.303-0.081,0.591-0.18,0.871-0.262c0.285-0.082,0.551-0.192,0.811-0.286
		c0.256-0.098,0.51-0.183,0.738-0.291c0.468-0.203,0.894-0.381,1.254-0.575c0.161-0.082,0.311-0.155,0.451-0.228
		c0.034-0.018,0.113-0.051,0.178-0.079c-0.064,2.889-0.146,5.827-0.215,5.828c-10.016,0.542-23.078,0.49-23.078,0.49
		s-7.991,0.032-16.258-0.21c-2.322-0.071-4.668-0.161-6.861-0.28H1.511c-0.127-0.004-0.237-8.642-0.259-9.215
		c-0.075-1.889-0.711-4.794-0.145-6.587c0.189-0.599,1.019-1.75,1.539-2.117c0.537-0.374,1.287-0.333,1.878-0.645l-1.026-1.21H0.387
		c0,0-0.906-3.007,0.056-2.945c0.961,0.055,4.526,0,4.526,0l0.699,2.617c0.68-1.125,1.396-2.233,2.1-3.341
		c1.078-1.72,2.16-3.436,3.242-5.153c0.221-0.016,0.491-0.021,0.779-0.026c1.962-0.801,6.922-0.985,12.729-0.985
		c5.899,0,10.921,0.199,12.821,1.022c0.297-0.005,0.594-0.01,0.877-0.012c1.076,1.704,2.163,3.407,3.236,5.117
		c0.653,1.039,1.324,2.075,1.965,3.122l0.635-2.361c0,0,3.563,0.055,4.521,0c0.965-0.062,0.059,2.945,0.059,2.945H45.523z"/>
	<path fill="#FFFFFF" d="M32.51,14.885c0,4.415-3.592,8.002-8.001,8.002c-4.408,0-7.999-3.587-7.999-8.002
		c0-0.654,0.076-1.29,0.228-1.898h-0.003c0.855-3.498,4.017-6.102,7.772-6.102c3.76,0,6.923,2.606,7.774,6.109h0.004
		C32.432,13.6,32.51,14.231,32.51,14.885z"/>
	<path fill="#37B8EE" d="M34.737,15.604c-4.421,0.295-8.78,0.255-9.818,0.156c-1.056,0.099-5.514,0.139-9.99-0.167
		c1.087-4.976,5.117-8.679,9.903-8.679C29.62,6.914,33.649,10.621,34.737,15.604z"/>
	<path fill="#FFFFFF" d="M8.387,31.995v1.667c0,0.749-0.555,1.115-1.274,1.115H2.995c-0.721,0-1.47-0.366-1.47-1.115v-1.947
		C3.719,31.836,6.066,31.925,8.387,31.995z"/>
	<path fill="#FFFFFF" d="M41.021,31.995v1.667c0,0.749,0.556,1.115,1.275,1.115h4.117c0.718,0,1.469-0.366,1.469-1.115v-1.947
		C45.688,31.836,43.342,31.925,41.021,31.995z"/>
	<path fill="#37B8EE" d="M40.529,11.092c-0.241,0.914-2.903,1.441-5.998,1.733C33.576,8.164,29.453,4.66,24.51,4.66
		c-4.939,0-9.057,3.496-10.018,8.151c-3.036-0.292-5.628-0.818-5.87-1.719c-0.604-2.27,3.339-7.82,3.339-7.82h25.23
		C37.191,3.272,41.139,8.822,40.529,11.092z"/>
	<path fill="#37B8EE" d="M2.276,18.997c-0.079-0.916,0.725-1.556,1.787-1.421l5.995,0.765c1.065,0.134,2.043,0.904,2.177,1.706
		c0.133,0.802-0.63,1.388-1.697,1.297l-6.177-0.521C3.295,20.735,2.354,19.912,2.276,18.997z"/>
	<path fill="#37B8EE" d="M47.192,18.997c0.08-0.916-0.725-1.556-1.786-1.421l-5.996,0.765c-1.063,0.134-2.043,0.904-2.176,1.706
		c-0.134,0.802,0.629,1.388,1.695,1.297l6.18-0.521C46.176,20.735,47.112,19.912,47.192,18.997z"/>
	<path fill="#04429F" d="M47.848,23.804c-0.02,0.006-0.027,0.006-0.027,0.006c-0.26,0.073-0.574,0.128-0.933,0.197
		c-0.375,0.085-0.807,0.141-1.271,0.208c-0.228,0.037-0.475,0.048-0.724,0.075c-0.248,0.018-0.507,0.048-0.771,0.048
		c-0.266,0.006-0.532,0.025-0.811,0.021c-0.274-0.006-0.555-0.016-0.838-0.024c-0.281-0.021-0.568-0.044-0.854-0.071
		c-0.288-0.039-0.576-0.074-0.863-0.121c-0.571-0.102-1.146-0.229-1.698-0.402l-0.411-0.127l-0.404-0.146
		c-0.27-0.094-0.528-0.208-0.785-0.317c-0.256-0.113-0.504-0.237-0.742-0.36c-0.243-0.132-0.479-0.252-0.698-0.394
		c-0.453-0.26-0.862-0.553-1.238-0.835c-0.381-0.289-0.714-0.576-1.01-0.853c-0.188-0.18-0.364-0.35-0.516-0.514
		c0.942-1.549,1.485-3.365,1.485-5.311c0-0.707-0.073-1.396-0.206-2.06h-0.004C33.573,8.163,29.452,4.66,24.507,4.66
		c-4.937,0-9.059,3.496-10.016,8.151h0.001c-0.138,0.667-0.21,1.362-0.21,2.074c0,5.649,4.577,10.23,10.227,10.23
		c1.528,0,2.976-0.336,4.279-0.935c0.168,0.11,0.349,0.227,0.539,0.35c0.4,0.253,0.859,0.512,1.368,0.775
		c0.509,0.263,1.07,0.519,1.671,0.756c0.603,0.233,1.247,0.458,1.924,0.632c0.333,0.101,0.681,0.169,1.028,0.251
		c0.351,0.067,0.708,0.131,1.065,0.182c0.359,0.049,0.717,0.102,1.082,0.123c0.183,0.014,0.365,0.03,0.543,0.041l0.545,0.014
		c0.723,0.019,1.443-0.025,2.141-0.086c0.348-0.041,0.69-0.092,1.027-0.142c0.33-0.061,0.659-0.124,0.981-0.186
		c0.32-0.077,0.629-0.159,0.932-0.233c0.303-0.081,0.591-0.18,0.871-0.262c0.285-0.082,0.551-0.192,0.811-0.286
		c0.256-0.098,0.51-0.183,0.738-0.291c0.468-0.203,0.894-0.381,1.254-0.575c0.161-0.082,0.311-0.155,0.451-0.228
		c0.034-0.018,0.113-0.051,0.178-0.079c0.011-0.397,0.018-0.794,0.029-1.182C47.904,23.783,47.87,23.795,47.848,23.804z
		 M24.509,22.887c-4.408,0-7.999-3.587-7.999-8.002c0-0.654,0.076-1.29,0.228-1.898h-0.003c0.855-3.498,4.017-6.102,7.772-6.102
		c3.76,0,6.923,2.606,7.774,6.109h0.004c0.146,0.606,0.225,1.237,0.225,1.891C32.51,19.3,28.918,22.887,24.509,22.887z"/>
</g>
</svg>
