<?xml version="1.0" encoding="utf-8"?>
<!-- Generator: Adobe Illustrator 16.2.0, SVG Export Plug-In . SVG Version: 6.00 Build 0)  -->
<!DOCTYPE svg PUBLIC "-//W3C//DTD SVG 1.1//EN" "http://www.w3.org/Graphics/SVG/1.1/DTD/svg11.dtd">
<svg version="1.1" id="Слой_1" xmlns="http://www.w3.org/2000/svg" xmlns:xlink="http://www.w3.org/1999/xlink" x="0px" y="0px"
	 width="30px" height="29.934px" viewBox="0 0 30 29.934" enable-background="new 0 0 30 29.934" xml:space="preserve">
<path fill="#FFFFFF" d="M29.326,23.676l-4.631-4.635c-0.924-0.919-2.451-0.891-3.406,0.064l-2.334,2.335
	c-0.148-0.081-0.301-0.166-0.461-0.257c-1.475-0.817-3.492-1.935-5.617-4.06c-2.129-2.129-3.248-4.151-4.066-5.627
	c-0.09-0.155-0.172-0.305-0.252-0.449l1.566-1.564l0.77-0.771c0.955-0.957,0.986-2.483,0.064-3.404L6.324,0.673
	C5.404-0.249,3.875-0.22,2.918,0.737L1.613,2.05l0.033,0.035C1.209,2.645,0.844,3.289,0.572,3.983
	c-0.25,0.662-0.408,1.294-0.477,1.925c-0.615,5.072,1.705,9.707,7.992,15.998c8.697,8.693,15.705,8.038,16.006,8.005
	c0.658-0.078,1.289-0.236,1.932-0.485c0.688-0.269,1.332-0.634,1.889-1.071l0.027,0.026l1.326-1.297
	C30.221,26.127,30.248,24.6,29.326,23.676L29.326,23.676z M29.326,23.676"/>
</svg>
