<?xml version="1.0" encoding="utf-8"?>
<!-- Generator: Adobe Illustrator 16.2.0, SVG Export Plug-In . SVG Version: 6.00 Build 0)  -->
<!DOCTYPE svg PUBLIC "-//W3C//DTD SVG 1.1//EN" "http://www.w3.org/Graphics/SVG/1.1/DTD/svg11.dtd">
<svg version="1.1" id="Слой_1" xmlns="http://www.w3.org/2000/svg" xmlns:xlink="http://www.w3.org/1999/xlink" x="0px" y="0px"
	 width="149.708px" height="62.835px" viewBox="0 0 149.708 62.835" enable-background="new 0 0 149.708 62.835"
	 xml:space="preserve">
<g>
	<path fill="#FFFFFF" d="M99.938,8.985V6.576c0-1.156,0.764-1.432,1.318-1.432c0.537,0,3.369,0,3.369,0V0h-4.641
		c-5.158,0-6.314,3.809-6.314,6.283v2.702h-2.996v3.63v2.378h3.027c0,6.819,0,15.007,0,15.007h6.008c0,0,0-8.303,0-15.007h4.441
		l0.196-2.362l0.356-3.646H99.938z"/>
	<path fill="#FFFFFF" d="M74.708,8.748c0,0-0.309-2.162-1.204-3.105c-1.138-1.235-2.423-1.253-2.991-1.334
		C66.317,4,60.025,4,60.025,4h-0.034c0,0-6.275,0-10.472,0.309c-0.601,0.081-1.868,0.099-3.007,1.334
		c-0.895,0.943-1.203,3.105-1.203,3.105S45,11.285,45,13.788v0.326v2.064c0,2.536,0.31,5.041,0.31,5.041s0.309,2.163,1.203,3.122
		c1.139,1.251,2.635,1.203,3.317,1.334C52.22,25.919,60.025,26,60.025,26s6.292-0.031,10.487-0.324
		c0.568-0.082,1.854-0.082,2.991-1.334c0.896-0.959,1.204-3.121,1.204-3.121S75,18.715,75,16.18v-1.936v-0.456
		C75,11.285,74.708,8.748,74.708,8.748L74.708,8.748z M65.017,14.667l-8.114,4.374v-6.732V10.26l3.675,2L65.017,14.667z"/>
	<path fill="#FFFFFF" d="M29.78,7.554c-0.4-0.296-1.835-0.296-3.255-0.296c-1.45,0.029-2.9,0.029-3.241,0.162
		c-0.31,0.118-1.006,1.806-1.907,3.535c-1.036,1.955-2.294,3.849-3.093,3.818c-1.051,0-0.799-3.21-0.725-5.593
		c0.014-1.554-0.237-2.058-0.459-2.188c-0.548-0.387-2.057-0.756-2.057-0.756S10.516,5.897,9.88,7.85
		c0.873,0.118,2.353-0.147,1.775,5.902c-0.044,0.297-0.695,2.781-2.797-0.576c-0.532-0.844-2.543-5.889-3.254-5.918
		C3.28,7.213,0.974,7.109,0.175,7.554c-0.755,0.443,1.006,3.905,3.98,8.551c2.41,3.818,4.971,6.777,9.409,7.517
		c0.843,0.09,3.004,0.178,3.699-0.146c0.458-0.224-0.119-3.508,1.464-3.834c0.696-0.134,3.402,3.434,4.424,3.834
		c0.623,0.25,1.982,0.354,3.374,0.293c1.509-0.043,3.225,0.148,3.388-0.886c0.37-2.265-4.57-5.225-4.705-6.614
		c-0.118-1.006,1.806-2.854,2.781-4.274C29.202,10.275,30.535,8.205,29.78,7.554L29.78,7.554z"/>
	<path fill="#FFFFFF" d="M127.045,14.993c0-4.225,3.43-7.671,7.651-7.671c4.242,0,7.671,3.446,7.671,7.671
		c0,4.239-3.429,7.669-7.671,7.669C130.475,22.662,127.045,19.232,127.045,14.993L127.045,14.993z M142.618,0h-15.82
		c-3.893,0-7.09,3.181-7.09,7.092V22.91c0,3.895,3.197,7.09,7.09,7.09h15.82c3.908,0,7.09-3.195,7.09-7.09V7.092
		C149.708,3.181,146.526,0,142.618,0L142.618,0z M126.797,1.773h15.82c2.932,0,5.315,2.385,5.315,5.318V22.91
		c0,2.934-2.386,5.316-5.315,5.316h-15.82c-2.935,0-5.317-2.385-5.317-5.316V7.092C121.479,4.158,123.864,1.773,126.797,1.773
		L126.797,1.773z M144.19,4.01c-0.861,0-1.557,0.695-1.557,1.557c0,0.862,0.695,1.558,1.557,1.558s1.559-0.696,1.559-1.558
		C145.749,4.705,145.051,4.01,144.19,4.01L144.19,4.01z M144.374,14.993c0-5.336-4.324-9.675-9.676-9.675
		c-5.334,0-9.674,4.339-9.674,9.675c0,5.351,4.34,9.673,9.674,9.673C140.049,24.666,144.374,20.344,144.374,14.993L144.374,14.993z"
		/>
</g>
<g>
	<path fill="#D1DBE0" d="M99.938,41.819v-2.407c0-1.156,0.764-1.433,1.318-1.433c0.537,0,3.369,0,3.369,0v-5.146h-4.641
		c-5.158,0-6.314,3.81-6.314,6.283v2.701h-2.996v3.631v2.379h3.027c0,6.818,0,15.006,0,15.006h6.008c0,0,0-8.303,0-15.006h4.441
		l0.196-2.363l0.356-3.646H99.938z"/>
	<path fill="#D1DBE0" d="M74.708,41.583c0,0-0.309-2.162-1.204-3.105c-1.138-1.234-2.423-1.252-2.991-1.334
		c-4.196-0.309-10.488-0.309-10.488-0.309h-0.034c0,0-6.275,0-10.472,0.309c-0.601,0.082-1.868,0.1-3.007,1.334
		c-0.895,0.943-1.203,3.105-1.203,3.105S45,44.121,45,46.623v0.325v2.064c0,2.536,0.31,5.041,0.31,5.041s0.309,2.163,1.203,3.122
		c1.139,1.251,2.635,1.203,3.317,1.334c2.39,0.244,10.195,0.324,10.195,0.324s6.292-0.03,10.487-0.323
		c0.568-0.082,1.854-0.082,2.991-1.334c0.896-0.96,1.205-3.121,1.205-3.121S75,51.55,75,49.015V47.08v-0.457
		C75,44.121,74.708,41.583,74.708,41.583L74.708,41.583z M65.017,47.501l-8.114,4.375v-6.732v-2.049l3.675,2L65.017,47.501z"/>
	<path fill="#D1DBE0" d="M29.78,40.39c-0.4-0.297-1.835-0.297-3.255-0.297c-1.45,0.029-2.9,0.029-3.241,0.162
		c-0.31,0.117-1.006,1.807-1.907,3.535c-1.036,1.955-2.294,3.85-3.093,3.817c-1.051,0-0.799-3.211-0.725-5.594
		c0.014-1.554-0.237-2.058-0.459-2.188c-0.548-0.387-2.057-0.756-2.057-0.756s-4.527-0.34-5.163,1.613
		c0.873,0.119,2.353-0.146,1.775,5.902c-0.044,0.297-0.695,2.78-2.797-0.576c-0.532-0.844-2.543-5.889-3.254-5.918
		c-2.324-0.045-4.63-0.148-5.429,0.297c-0.755,0.441,1.006,3.904,3.98,8.551c2.41,3.818,4.971,6.777,9.409,7.518
		c0.843,0.09,3.004,0.178,3.699-0.146c0.458-0.225-0.119-3.508,1.464-3.834c0.696-0.135,3.402,3.434,4.424,3.834
		c0.623,0.25,1.982,0.354,3.374,0.293c1.509-0.043,3.225,0.148,3.388-0.887c0.37-2.264-4.57-5.225-4.705-6.613
		c-0.118-1.006,1.806-2.854,2.781-4.273C29.202,43.11,30.535,41.041,29.78,40.39L29.78,40.39z"/>
	<path fill="#D1DBE0" d="M127.045,47.828c0-4.226,3.43-7.671,7.651-7.671c4.242,0,7.671,3.445,7.671,7.671
		c0,4.239-3.429,7.67-7.671,7.67C130.475,55.498,127.045,52.067,127.045,47.828L127.045,47.828z M142.618,32.835h-15.82
		c-3.893,0-7.09,3.182-7.09,7.092v15.818c0,3.895,3.197,7.09,7.09,7.09h15.82c3.908,0,7.09-3.195,7.09-7.09V39.927
		C149.708,36.017,146.526,32.835,142.618,32.835L142.618,32.835z M126.797,34.608h15.82c2.932,0,5.315,2.386,5.315,5.317v15.818
		c0,2.935-2.386,5.316-5.315,5.316h-15.82c-2.935,0-5.317-2.385-5.317-5.316V39.927C121.479,36.994,123.864,34.608,126.797,34.608
		L126.797,34.608z M144.19,36.845c-0.861,0-1.557,0.695-1.557,1.557c0,0.863,0.695,1.559,1.557,1.559s1.559-0.694,1.559-1.559
		C145.749,37.541,145.051,36.845,144.19,36.845L144.19,36.845z M144.374,47.828c0-5.337-4.324-9.675-9.676-9.675
		c-5.334,0-9.674,4.339-9.674,9.675c0,5.352,4.34,9.674,9.674,9.674C140.049,57.501,144.374,53.179,144.374,47.828L144.374,47.828z"
		/>
</g>
</svg>
